/* XPM */
static const char *coin002[] = {
/* columns rows colors chars-per-pixel */
"32 32 5 1 ",
"  c #180E0E",
". c #CC7F00",
"X c #FF9F00",
"o c yellow",
"O c None",
/* pixels */
"OOOOOOOOOOOOOOOOOOOOOOOOOOOOOOOO",
"OOOOOOOOOOOOOOOOOOOOOOOOOOOOOOOO",
"OOOOOOOOOOOOOOOOOOOOOOOOOOOOOOOO",
"OOOOOOOOOOOOOOOOOOOOOOOOOOOOOOOO",
"OOOOOOOOOOOOOOOOOOOOOOOOOOOOOOOO",
"OOOOOOOOOOOOOOOOOOOOOOOOOOOOOOOO",
"OOOOOOOOOOOOOOOOOOOOOOOOOOOOOOOO",
"OOOOOOOOOOOOOOOOOOOOOOOOOOOOOOOO",
"OOOOOOOOOOOOOOO  OOOOOOOOOOOOOOO",
"OOOOOOOOOOOOOO oo OOOOOOOOOOOOOO",
"OOOOOOOOOOOOOO o. OOOOOOOOOOOOOO",
"OOOOOOOOOOOOOO o. OOOOOOOOOOOOOO",
"OOOOOOOOOOOOO oXX. OOOOOOOOOOOOO",
"OOOOOOOOOOOOO oX.. OOOOOOOOOOOOO",
"OOOOOOOOOOOOO oX.. OOOOOOOOOOOOO",
"OOOOOOOOOOOOO oX.. OOOOOOOOOOOOO",
"OOOOOOOOOOOOO oX.. OOOOOOOOOOOOO",
"OOOOOOOOOOOOO oX.. OOOOOOOOOOOOO",
"OOOOOOOOOOOOO oX.. OOOOOOOOOOOOO",
"OOOOOOOOOOOOO o... OOOOOOOOOOOOO",
"OOOOOOOOOOOOOO X. OOOOOOOOOOOOOO",
"OOOOOOOOOOOOOO X. OOOOOOOOOOOOOO",
"OOOOOOOOOOOOOO .. OOOOOOOOOOOOOO",
"OOOOOOOOOOOOOOO  OOOOOOOOOOOOOOO",
"OOOOOOOOOOOOOOOOOOOOOOOOOOOOOOOO",
"OOOOOOOOOOOOOOOOOOOOOOOOOOOOOOOO",
"OOOOOOOOOOOOOOOOOOOOOOOOOOOOOOOO",
"OOOOOOOOOOOOOOOOOOOOOOOOOOOOOOOO",
"OOOOOOOOOOOOOOOOOOOOOOOOOOOOOOOO",
"OOOOOOOOOOOOOOOOOOOOOOOOOOOOOOOO",
"OOOOOOOOOOOOOOOOOOOOOOOOOOOOOOOO",
"OOOOOOOOOOOOOOOOOOOOOOOOOOOOOOOO"
};
