/* XPM */
static const char *coin001[] = {
/* columns rows colors chars-per-pixel */
"32 32 6 1 ",
"  c #180E0E",
". c #CC7F00",
"X c #FF9F00",
"o c yellow",
"O c white",
"+ c None",
/* pixels */
"++++++++++++++++++++++++++++++++",
"++++++++++++++++++++++++++++++++",
"++++++++++++++++++++++++++++++++",
"++++++++++++++++++++++++++++++++",
"++++++++++++++++++++++++++++++++",
"++++++++++++++++++++++++++++++++",
"++++++++++++++++++++++++++++++++",
"++++++++++++++++++++++++++++++++",
"++++++++++++++    ++++++++++++++",
"+++++++++++++ OOoO +++++++++++++",
"++++++++++++ OOXOX. ++++++++++++",
"++++++++++++ OXOXX. ++++++++++++",
"+++++++++++ OXOooXX. +++++++++++",
"+++++++++++ oOXo.XX. +++++++++++",
"+++++++++++ OXoo.XX. +++++++++++",
"+++++++++++ oXXo.XX. +++++++++++",
"+++++++++++ oXXo.XX. +++++++++++",
"+++++++++++ oXXo.XX. +++++++++++",
"+++++++++++ oXXo.XX. +++++++++++",
"+++++++++++ oXX..XX. +++++++++++",
"+++++++++++ oXXXXXX. +++++++++++",
"++++++++++++ oXXXX. ++++++++++++",
"+++++++++++++ .... +++++++++++++",
"++++++++++++++    ++++++++++++++",
"++++++++++++++++++++++++++++++++",
"++++++++++++++++++++++++++++++++",
"++++++++++++++++++++++++++++++++",
"++++++++++++++++++++++++++++++++",
"++++++++++++++++++++++++++++++++",
"++++++++++++++++++++++++++++++++",
"++++++++++++++++++++++++++++++++",
"++++++++++++++++++++++++++++++++"
};
