/* XPM */
static const char *enemyR7[] = {
/* columns rows colors chars-per-pixel */
"32 32 22 1 ",
"  c #1F1A1A",
". c #243305",
"X c #7B0808",
"o c #603A0A",
"O c #4C3029",
"+ c #425916",
"@ c #7B4E16",
"# c #5E433D",
"$ c #5D772D",
"% c #534545",
"& c #516D7D",
"* c #8D6534",
"= c #7D984B",
"- c #A3BE71",
"; c #6F828D",
": c #B7A59B",
"> c #9BADB7",
", c #B8D08A",
"< c #D5CAC5",
"1 c #D7D5D2",
"2 c #F4EDEA",
"3 c None",
/* pixels */
"33333333333333333333333333333333",
"33333333333333333333333333333333",
"33333333333333333333333333333333",
"33333333333333333333333333333333",
"33333333333333333333333333333333",
"33333333333333333333333333333333",
"33333333333333333333333333333333",
"333333333      33333333333333333",
"33333333 +--,,+  333333333333333",
"3333333 +=--,,,  333333333333333",
"3333333 $===---== 33333333333333",
"333333  $=  == $$ 33333  3333333",
"33333 -=$$ X==X$$ 3333 O 3333333",
"333333  +$=1===11$ 33 O;>   3333",
"3333333  ..++++.. 33 O&;>>< 3333",
"333333 >>  $-, 3333 O&&;>>2 3333",
"333333 >>  $-, 3333 O&&;>>2 3333",
"33333 ;;; o =,=  3 # &;;>>2 3333",
"33333    + o = ++ O 3 ;;<2 33333",
"33333 =+ oo@*o   O 33 :<  333333",
"333333  .. @@*o%% 3333  33333333",
"33333%%% ++   %%%%%3333333333333",
"3333%%%%%%%%%%%%%%%%333333333333",
"33333%%%%%%%%%%%%%%3333333333333",
"3333333%%%%%%%%%%333333333333333",
"33333333333333333333333333333333",
"33333333333333333333333333333333",
"33333333333333333333333333333333",
"33333333333333333333333333333333",
"33333333333333333333333333333333",
"33333333333333333333333333333333",
"33333333333333333333333333333333"
};
