/* XPM */
static const char *exit2[] = {
/* columns rows colors chars-per-pixel */
"32 32 7 1 ",
"  c #52607C",
". c #262B44",
"X c #8B9BB4",
"o c #3F2631",
"O c #BD6C4A",
"+ c #C0CBDC",
"@ c white",
/* pixels */
"    ........................    ",
"X............................XXX",
"X............................XXX",
"X............................XXX",
".....XXXXXXXX    XXXXXXXX.......",
"....X   ooooo    XXXXXXX XXX....",
"....X   ooooo    XXXXXXX XXX....",
"....X   ooooo    XXXXXXX XXX....",
"....Xooooooooooo........XXXX....",
"....XooooOOOoooo........XXXX....",
"....XooooOOOoooo........XXXX....",
"....XooooOOOoooo........XXXX....",
"....+ooooOOOoooo........++++....",
".    ooooOOOoooo........     ...",
".    ooooOOOoooo........     ...",
".    ooooOOOoooo........     ...",
".    ooooOOOoooo........     ...",
"....XooooOOOooooo.......XXXX....",
"....XooooOOOooooo.......XXXX....",
"....XooooOOOooooo.......XXXX....",
"....XooooOOOXoooo.......XXXX....",
"....+ooooOOOXoooo.......++++....",
"....+ooooOOOXoooo.......++++....",
"....+ooooOOOXoooo.......++++....",
".    ooooOOOooooo.......     ...",
".    ooooOOOoooo........     ...",
".    ooooOOOoooo........     ...",
".    ooooOOOoooo........     ...",
"....XooooOOOoooo........XXXX....",
"....XooooOOOoooo........XXXX....",
"....XooooOOOoooo........XXXX....",
"....XooooOOOoooo........XXXX...."
};
