/* XPM */
static const char *exit0[] = {
/* columns rows colors chars-per-pixel */
"32 32 8 1 ",
"  c #52607C",
". c #262B44",
"X c #8B9BB4",
"o c #3F2631",
"O c #763B36",
"+ c #BD6C4A",
"@ c #C0CBDC",
"# c white",
/* pixels */
"    ........................    ",
"X............................XXX",
"X............................XXX",
"X............................XXX",
".....XXXXXXXX    XXXXXXXX.......",
"....X   oooooooooooooooo XXX....",
"....X   oooooooooooooooo XXX....",
"....X   oooooooooooooooo XXX....",
"....XooooooooooooooooooooXXX....",
"....XooooOOO++++++++OooooXXX....",
"....XooooOOO++++++++OooooXXX....",
"....XooooOOO++++++++OooooXXX....",
"....@oooo+++OOOOOOOO+oooo@@@....",
".    oooo+++OOOOOOOO+oooo    ...",
".    oooo+++OOOOOOOO+oooo    ...",
".    oooo+++OOOOOOOO+oooo    ...",
".    oooo+++OOOOOOOO+oooo    ...",
"....Xoooo+++OOOOOOOO+ooooXXX....",
"....Xoooo+++OOOOOOOO+ooooXXX....",
"....Xoooo+++OOOOOOOO+ooooXXX....",
"....Xoooo+++OXXXXOOO+ooooXXX....",
"....@oooo+++OXXXXOOO+oooo@@@....",
"....@oooo+++OXXXXOOO+oooo@@@....",
"....@oooo+++OXXXXOOO+oooo@@@....",
".    oooo+++OooooOOO+oooo    ...",
".    oooo+++OOOOOOOO+oooo    ...",
".    oooo+++OOOOOOOO+oooo    ...",
".    oooo+++OOOOOOOO+oooo    ...",
"....Xoooo+++OOOOOOOO+ooooXXX....",
"....Xoooo++++++++++++ooooXXX....",
"....Xoooo++++++++++++ooooXXX....",
"....Xoooo++++++++++++ooooXXX...."
};
