/* XPM */
static const char *exit1[] = {
/* columns rows colors chars-per-pixel */
"32 32 8 1 ",
"  c #52607C",
". c #262B44",
"X c #8B9BB4",
"o c #3F2631",
"O c #763B36",
"+ c #BD6C4A",
"@ c #C0CBDC",
"# c white",
/* pixels */
"    ........................    ",
"X............................XXX",
"X............................XXX",
"X............................XXX",
".....XXXXXXXX    XXXXXXXX.......",
"....X   ooooooooooooXXXX XXX....",
"....X   ooooooooooooXXXX XXX....",
"....X   ooooooooooooXXXX XXX....",
"....Xoooooooooooooooo...XXXX....",
"....XooooOOO++++Oooo....XXXX....",
"....XooooOOO++++Oooo....XXXX....",
"....XooooOOO++++Oooo....XXXX....",
"....@oooo+++OOOO+...o...@@@@....",
".    oooo+++OOOO+ooo....     ...",
".    oooo+++OOOO+ooo....     ...",
".    oooo+++OOOO+ooo....     ...",
".    oooo+++OOOO+...o...     ...",
"....Xoooo+++OXXX+ooo....XXXX....",
"....Xoooo+++OXXX+ooo....XXXX....",
"....Xoooo+++OXXX+ooo....XXXX....",
"....Xoooo+++OXXX+...o...XXXX....",
"....@oooo+++Oooo+ooo....@@@@....",
"....@oooo+++Oooo+ooo....@@@@....",
"....@oooo+++Oooo+ooo....@@@@....",
".    oooo+++OOOO+.......     ...",
".    oooo+++O+++........     ...",
".    oooo+++O+++........     ...",
".    oooo+++O+++........     ...",
"....Xoooo++++...........XXXX....",
"....Xoooo+++............XXXX....",
"....Xoooo+++............XXXX....",
"....Xoooo+++............XXXX...."
};
