/* XPM */
static const char *playerL5[] = {
/* columns rows colors chars-per-pixel */
"32 32 23 1 ",
"  c #1F1A1A",
". c #2D0704",
"X c #431A0B",
"o c #621914",
"O c #672020",
"+ c #7B4E16",
"@ c #534545",
"# c #425C6B",
"$ c #8F3838",
"% c #8D6534",
"& c #946835",
"* c #B78C61",
"= c #607581",
"- c #6F828D",
"; c #7F909A",
": c #BE9B97",
"> c #B19E9A",
", c #9BADB7",
"< c #C9C0BE",
"1 c #C5D0D5",
"2 c #F2DAD2",
"3 c white",
"4 c None",
/* pixels */
"44444444444444444444444444444444",
"44444444444444444444444444444444",
"44444444444444444444444444444444",
"44444444444444444444444444444444",
"44444444444444   444444444444444",
"4444444444444  =# 44444444444444",
"44444444444  = #=1 4444444444444",
"4444444444 == ,=11, 444444444444",
"4444444444 == ,=11, 444444444444",
"4444444444 ==#,;11,-  4444444444",
"4444444444 == #;,,--  4444444444",
"4444444444 == ###--=    44444444",
"444444444 ### #..#=#  <  4444444",
"444444444 #  22o3 #### <  444444",
"4444444444 222222:    > < 444444",
"44444444444  ,=,==  %% > 4444444",
"44444444444  ,=,==  %% > 4444444",
"4444444444 OO ,== OO  % 44444444",
"444444444 =  $OOXX ,== 444444444",
"444444444 =  O$$OX === 444444444",
"4444444444   *&&+++   4444444444",
"44444444444  ,XX=## 444444444444",
"4444444444@  O  XX @444444444444",
"44444444@@@  O @ X @@@@444444444",
"44444444@@@  O @ X @@@@444444444",
"4444444@@@@@@@@@@@@@@@@@44444444",
"44444444@@@@@@@@@@@@@@@444444444",
"4444444444@@@@@@@@@@444444444444",
"44444444444444444444444444444444",
"44444444444444444444444444444444",
"44444444444444444444444444444444",
"44444444444444444444444444444444"
};
