/* XPM */
static const char *output[] = {
/* columns rows colors chars-per-pixel */
"32 32 123 2 ",
"   c #2B1A0C",
".  c #2C1A0C",
"X  c #2C1B0C",
"o  c #2D1B0C",
"O  c #3E260A",
"+  c #31290C",
"@  c #322A0C",
"#  c #332B0C",
"$  c #342B0E",
"%  c #342C0C",
"&  c #342B28",
"*  c #31292D",
"=  c #332B2C",
"-  c #40270A",
";  c #44350B",
":  c #453526",
">  c #49410A",
",  c #4A420A",
"<  c #4B420A",
"1  c #494026",
"2  c #4A4226",
"3  c #4B4241",
"4  c #AD6B02",
"5  c #AD6C02",
"6  c #AE6C02",
"7  c #AF6E02",
"8  c #AE6D04",
"9  c #B47002",
"0  c #BC7501",
"q  c #BD7501",
"w  c #BD7601",
"e  c #C47A01",
"r  c #D68500",
"t  c #D68501",
"y  c #DA8800",
"u  c #DB8900",
"i  c #F49700",
"p  c #F49800",
"a  c #F69900",
"s  c #F99B00",
"d  c #F99B01",
"f  c #FA9B00",
"g  c #FA9C00",
"h  c #FB9C00",
"j  c #FB9D00",
"k  c #FA9C01",
"l  c #FD9E00",
"z  c #FF9E00",
"x  c #FE9F00",
"c  c #FF9F00",
"v  c #FF9F01",
"b  c #F8A200",
"n  c #FFA000",
"m  c #FAA401",
"M  c #FAA501",
"N  c #FFA601",
"B  c #FFA900",
"V  c #FFAA00",
"C  c #FFAA01",
"Z  c #FFAB01",
"A  c #FCB000",
"S  c #FDB100",
"D  c #FFB001",
"F  c #DB9A2D",
"G  c #F9AB2D",
"H  c #F8AC2D",
"J  c #FDAF2D",
"K  c #FFB02D",
"L  c #FFB32D",
"P  c #FFB02E",
"I  c #FFB12E",
"U  c #FDBA2D",
"Y  c #FCB92E",
"T  c #FFBC2E",
"R  c #D5C102",
"E  c #D1C602",
"W  c #D1C702",
"Q  c #D3C702",
"!  c #D1C604",
"~  c #D3C704",
"^  c #E7D300",
"/  c #E8D401",
"(  c #E4D801",
")  c #E5D901",
"_  c #E4D903",
"`  c #E4E22F",
"'  c #FEE92D",
"]  c #FFEC2E",
"[  c #FFED2E",
"{  c #E0AE5C",
"}  c #FDC05C",
"|  c #FEC15C",
" . c #FFC15C",
".. c #FFC35C",
"X. c #FDC25E",
"o. c #FFC45C",
"O. c #FFFB5C",
"+. c #D4C1A3",
"@. c #D5C2A3",
"#. c #D1C7BA",
"$. c #F6D6A2",
"%. c #F9D8A2",
"&. c #FAD9A2",
"*. c #FFDBA2",
"=. c #FFDCA2",
"-. c #FFE5A2",
";. c #FFEDA2",
":. c #E8DECC",
">. c #E4E2CD",
",. c #FAEAD1",
"<. c #FAEBD1",
"1. c #FFECD0",
"2. c #FFEDD0",
"3. c #FFEDD1",
"4. c #FFEED1",
"5. c #FFF0D1",
"6. c #FEF5D0",
"7. c #FFF5D1",
"8. c #FFF6D0",
"9. c #FFF7D1",
"0. c #FFF8D0",
"q. c #FFFDD0",
"w. c None",
/* pixels */
"w.w.w.w.w.w.w.w.w.w.w.w.w.w.w.w.w.w.w.w.w.w.w.w.w.w.w.w.w.w.w.w.",
"w.w.w.w.w.w.w.w.w.w.w.w.w.w.w.w.w.w.w.w.w.w.w.w.w.w.w.w.w.w.w.w.",
"w.w.w.w.w.w.w.w.w.w.w.w.w.w.w.w.w.w.w.w.w.w.w.w.w.w.w.w.w.w.w.w.",
"w.w.w.w.w.w.w.w.w.w.w.w.w.w.w.w.w.w.w.w.w.w.w.w.w.w.w.w.w.w.w.w.",
"w.w.w.w.w.w.w.w.w.w.w.w.w.w.w.w.w.w.w.w.w.w.w.w.w.w.w.w.w.w.w.w.",
"w.w.w.w.w.w.w.w.w.w.w.w.w.w.w.w.w.w.w.w.w.w.w.w.w.w.w.w.w.w.w.w.",
"w.w.w.w.w.w.w.w.w.w.w.w.w.w.w.w.w.w.w.w.w.w.w.w.w.w.w.w.w.w.w.w.",
"w.w.w.w.w.w.w.w.w.w.w.w.w.w.w.w.w.w.w.w.w.w.w.w.w.w.w.w.w.w.w.w.",
"w.w.w.w.w.w.w.w.w.w.w.w.w.w.+ % % + w.w.w.w.w.w.w.w.w.w.w.w.w.w.",
"w.w.w.w.w.w.w.w.w.w.w.w.+ < Q ) ) ! 2 = w.w.w.w.w.w.w.w.w.w.w.w.",
"w.w.w.w.w.w.w.w.w.w.w.< Q / A V V U :.#.3 w.w.w.w.w.w.w.w.w.w.w.",
"w.w.w.w.w.w.w.w.w.w.< R A V n N P 3.3...@.: w.w.w.w.w.w.w.w.w.w.",
"w.w.w.w.w.w.w.w.w.+ Q A c c A ] 9.<...=.H 8 o w.w.w.w.w.w.w.w.w.",
"w.w.w.w.w.w.w.w.w.% ) V c A ] q.<.{ %.P h q o w.w.w.w.w.w.w.w.w.",
"w.w.w.w.w.w.w.w.w.% ) V N ] q.3...$.J c h q o w.w.w.w.w.w.w.w.w.",
"w.w.w.w.w.w.w.w.w.% ) V P 9.9...%.F f c h q o w.w.w.w.w.w.w.w.w.",
"w.w.w.w.w.w.w.w.w.% ) T 3.9.O.-.G t f c h q o w.w.w.w.w.w.w.w.w.",
"w.w.w.w.w.w.w.w.w.$ ` 0.3.o.;.P f t f c h q o w.w.w.w.w.w.w.w.w.",
"w.w.w.w.w.w.w.w.w.& >.5...-.' M i u f c h q o w.w.w.w.w.w.w.w.w.",
"w.w.w.w.w.w.w.w.w.= #...*.P M u u a c c a 7 o w.w.w.w.w.w.w.w.w.",
"w.w.w.w.w.w.w.w.w.w.3 @.U V c f f c h a 9 - w.w.w.w.w.w.w.w.w.w.",
"w.w.w.w.w.w.w.w.w.w.w.2 ! ^ b h h a e 4 - w.w.w.w.w.w.w.w.w.w.w.",
"w.w.w.w.w.w.w.w.w.w.w.w.+ ; 7 q q 7 O   w.w.w.w.w.w.w.w.w.w.w.w.",
"w.w.w.w.w.w.w.w.w.w.w.w.w.w.o o o o w.w.w.w.w.w.w.w.w.w.w.w.w.w.",
"w.w.w.w.w.w.w.w.w.w.w.w.w.w.w.w.w.w.w.w.w.w.w.w.w.w.w.w.w.w.w.w.",
"w.w.w.w.w.w.w.w.w.w.w.w.w.w.w.w.w.w.w.w.w.w.w.w.w.w.w.w.w.w.w.w.",
"w.w.w.w.w.w.w.w.w.w.w.w.w.w.w.w.w.w.w.w.w.w.w.w.w.w.w.w.w.w.w.w.",
"w.w.w.w.w.w.w.w.w.w.w.w.w.w.w.w.w.w.w.w.w.w.w.w.w.w.w.w.w.w.w.w.",
"w.w.w.w.w.w.w.w.w.w.w.w.w.w.w.w.w.w.w.w.w.w.w.w.w.w.w.w.w.w.w.w.",
"w.w.w.w.w.w.w.w.w.w.w.w.w.w.w.w.w.w.w.w.w.w.w.w.w.w.w.w.w.w.w.w.",
"w.w.w.w.w.w.w.w.w.w.w.w.w.w.w.w.w.w.w.w.w.w.w.w.w.w.w.w.w.w.w.w.",
"w.w.w.w.w.w.w.w.w.w.w.w.w.w.w.w.w.w.w.w.w.w.w.w.w.w.w.w.w.w.w.w."
};
