/* XPM */
static const char *resized[] = {
/* columns rows colors chars-per-pixel */
"32 32 6 1 ",
"  c #180E0E",
". c #CC7F00",
"X c #FF9F00",
"o c yellow",
"O c white",
"+ c None",
/* pixels */
"++++++++++++        ++++++++++++",
"++++++++++++        ++++++++++++",
"++++++++    oooooooo    ++++++++",
"++++++++    oooooooo    ++++++++",
"++++++  ooooXXXXXXXXOOOO  ++++++",
"++++++  ooooXXXXXXXXOOOO  ++++++",
"++++  ooXXXXXXXXXXOOOOXXOO  ++++",
"++++  ooXXXXXXXXXXOOOOXXOO  ++++",
"++  ooXXXXXXXXooOOOOXXOOXX..  ++",
"++  ooXXXXXXXXooOOOOXXOOXX..  ++",
"++  ooXXXXXXooOOOO..OOXXXX..  ++",
"++  ooXXXXXXooOOOO..OOXXXX..  ++",
"++  ooXXXXooOOOOXXOOXXXXXX..  ++",
"++  ooXXXXooOOOOXXOOXXXXXX..  ++",
"++  ooXXXXOOOOXXOO..XXXXXX..  ++",
"++  ooXXXXOOOOXXOO..XXXXXX..  ++",
"++  ooXXOOOOooOOXX..XXXXXX..  ++",
"++  ooXXOOOOooOOXX..XXXXXX..  ++",
"++  ooOOOOXXOOXXXX..XXXXXX..  ++",
"++  ooOOOOXXOOXXXX..XXXXXX..  ++",
"++  OOOOXXOOooXXXX..XXXXXX..  ++",
"++  OOOOXXOOooXXXX..XXXXXX..  ++",
"++  OOXXOOXXXX....XXXXXXXX..  ++",
"++  OOXXOOXXXX....XXXXXXXX..  ++",
"++++  OOXXXXXXXXXXXXXXXX..  ++++",
"++++  OOXXXXXXXXXXXXXXXX..  ++++",
"++++++  ooooXXXXXXXX....  ++++++",
"++++++  ooooXXXXXXXX....  ++++++",
"++++++++    ........    ++++++++",
"++++++++    ........    ++++++++",
"++++++++++++        ++++++++++++",
"++++++++++++        ++++++++++++"
};
