/* XPM */
static const char *exit[] = {
/* columns rows colors chars-per-pixel */
"32 32 8 1 ",
"  c #52607C",
". c #262B44",
"X c #8B9BB4",
"o c #3F2631",
"O c #763B36",
"+ c #BD6C4A",
"@ c #C0CBDC",
"# c white",
/* pixels */
"    ........................    ",
"    ........................    ",
"XX............................XX",
"XX............................XX",
"......XXXXXXXX    XXXXXXXX......",
"......XXXXXXXX    XXXXXXXX......",
"....XX  ooooooooooooXXXX  XX....",
"....XX  ooooooooooooXXXX  XX....",
"....XXoooooooooooooooo..XXXX....",
"....XXoooooooooooooooo..XXXX....",
"....XXooooOO++++OOoo....XXXX....",
"....XXooooOO++++OOoo....XXXX....",
"....@@oooo++OOOO++..oo..@@@@....",
"....@@oooo++OOOO++..oo..@@@@....",
"..    oooo++OOOO++oo....      ..",
"..    oooo++OOOO++oo....      ..",
"..    oooo++OOOO++..oo..      ..",
"..    oooo++OOOO++..oo..      ..",
"....XXoooo++OOXX++oo....XXXX....",
"....XXoooo++OOXX++oo....XXXX....",
"....XXoooo++OOXX++..oo..XXXX....",
"....XXoooo++OOXX++..oo..XXXX....",
"....@@oooo++OOoo++oo....@@@@....",
"....@@oooo++OOoo++oo....@@@@....",
"..    oooo++OOOO++......      ..",
"..    oooo++OOOO++......      ..",
"..    oooo++OO++........      ..",
"..    oooo++OO++........      ..",
"....XXoooo++++..........XXXX....",
"....XXoooo++++..........XXXX....",
"....XXoooo++............XXXX....",
"....XXoooo++............XXXX...."
};
