/* XPM */
static const char *floor[] = {
/* columns rows colors chars-per-pixel */
"32 32 165 2 ",
"   c #5E8341",
".  c #557C3D",
"X  c #5C8240",
"o  c #5F8542",
"O  c #567A3D",
"+  c #587E3E",
"@  c #597E3F",
"#  c #5C8241",
"$  c #577D3F",
"%  c #52783C",
"&  c #587E3F",
"*  c #557A3D",
"=  c #5A803F",
"-  c #5F8642",
";  c #628844",
":  c #557B3D",
">  c #618743",
",  c #496F37",
"<  c #5C803F",
"1  c #55793D",
"2  c #53793C",
"3  c #608743",
"4  c #658B46",
"5  c #5A813F",
"6  c #5D8341",
"7  c #5F8543",
"8  c #628743",
"9  c #577C3E",
"0  c #648944",
"q  c #547A3C",
"w  c #547B3D",
"e  c #486E36",
"r  c #5C7F3F",
"t  c #658A45",
"y  c #5E8441",
"u  c #638844",
"i  c #678D47",
"p  c #6C8F48",
"a  c #678C46",
"s  c #6B9048",
"d  c #587D3E",
"f  c #5B8140",
"g  c #567B3D",
"h  c #608643",
"j  c #618844",
"k  c #567D3E",
"l  c #55783C",
"z  c #55793C",
"x  c #5A803E",
"c  c #5E8541",
"v  c #5F8441",
"b  c #5C8140",
"n  c #577E3E",
"m  c #577D3E",
"M  c #4E733A",
"N  c #638944",
"B  c #5A8140",
"V  c #628945",
"C  c #5B8040",
"Z  c #587D3F",
"A  c #557A3C",
"S  c #55763B",
"D  c #5B8240",
"F  c #51783B",
"G  c #4C7238",
"H  c #54773B",
"J  c #537339",
"K  c #5D8140",
"L  c #557B3C",
"P  c #547B3C",
"I  c #597F3F",
"U  c #648A45",
"Y  c #6A9048",
"T  c #567C3D",
"R  c #557C3E",
"E  c #5D8342",
"W  c #648A46",
"Q  c #668C46",
"!  c #5E8442",
"~  c #5C8340",
"^  c #466C37",
"/  c #5F8643",
"(  c #608543",
")  c #50783B",
"_  c #577E3F",
"`  c #648945",
"'  c #59803F",
"]  c #628744",
"[  c #4A7038",
"{  c #53743A",
"}  c #527339",
"|  c #52763B",
" . c #52793C",
".. c #466934",
"X. c #486A35",
"o. c #5D8241",
"O. c #608642",
"+. c #658B45",
"@. c #598040",
"#. c #688E47",
"$. c #618642",
"%. c #6A8F47",
"&. c #698F48",
"*. c #698F47",
"=. c #5C8141",
"-. c #5B8141",
";. c #537A3C",
":. c #50753A",
">. c #597D3E",
",. c #51773B",
"<. c #547239",
"1. c #58783C",
"2. c #668E46",
"3. c #6D9149",
"4. c #618744",
"5. c #567C3E",
"6. c #5F8442",
"7. c #5C8341",
"8. c #4E7038",
"9. c #628944",
"0. c #5D8340",
"q. c #57773B",
"w. c #658C45",
"e. c #4F753B",
"r. c #577D3D",
"t. c #5A8040",
"y. c #638945",
"u. c #6E9249",
"i. c #6A8E47",
"p. c #5E8542",
"a. c #678E47",
"s. c #4F6E37",
"d. c #54783C",
"f. c #547A3D",
"g. c #668B46",
"h. c #628843",
"j. c #547A3E",
"k. c #547C3D",
"l. c #4C6F37",
"z. c #52753A",
"x. c #57793C",
"c. c #5A8141",
"v. c #4B6F37",
"b. c #50773B",
"n. c #5E8241",
"m. c #567A3C",
"M. c #476A34",
"N. c #587C3E",
"B. c #658945",
"V. c #5A7D3E",
"C. c #4F743A",
"Z. c #5F8240",
"A. c #5F8341",
"S. c #618643",
"D. c #5D8441",
"F. c #4C7239",
"G. c #567B3E",
"H. c #56763B",
"J. c #587B3D",
"K. c #4B7138",
"L. c #5E8342",
"P. c #4E743A",
"I. c #56773C",
"U. c #4D7239",
"Y. c white",
/* pixels */
"  . X o O + @ # $ % & * = - + ;   : X o O + @ # $ % & * = - + > ",
", < 1 : 2 3 4 5 6 7 8 9 0 q w 6 e r 1 : 2 3 4 5 6 7 8 9 0 q w # ",
"- t y u i p t 0 a 8 s 6 d 2 f g h t y u i p t 0 a 8 s 6 d 2 f g ",
"j k = l z x c v b : n m M m N B V k = l z x c v b : n m M m N C ",
": Z A S @ & D F G H 0 J K N L 6 : m A S @ & D F G H 0 J K N P X ",
"I D U p Y = T R E o y i W 7 Q ! I D U p Y = T R E o y i W 7 Q ~ ",
"h ^ B 2 / X y 6 ( T z D ) f $ t ( ^ B 2 / X y 6 ( T z D ) f _ ` ",
": X 6 U ' ] 3 B [ { } |  ...X.o.: X 6 U ' ] 3 B [ { } |  ...X.b ",
"& Y o ; # O.7 ' +.@.I #.I $.%.# _ &.o ; # O.7 ' +.@.I #.I $.*.=.",
"d -.;.:.>.l ,.<.1.2.3.4.y 2 5.( m -.;.:.>.l ,.<.1.2.3.4.y 2 : 6.",
"d ] . 7.8.9.0.q.@._ 4.w.! 2 e.=.r.4.. 7.8.9.0.q.@._ 4.w.! 2 e.t.",
"9 o j y.u.i.p.r.a.U s.d.B *.> f.m o j y.u.i.p.r.a.U s.d.B *.> f.",
"g.a.h.> m j.z t.k.l.z.} x.c.v.b a a.h.> m j.z t.k.l.z.} x.c.v.o.",
"m u y b.z n.m.M.t.h.N.B.V.C.Z.= d u y b.z n.m.M.t.h.N.B.V.C.Z.= ",
"> y k A.o S.& / 3 n h.V Q ; i U 4.D.k A.o S.& / 3 n h.V Q ; i U ",
"; 2 f 6 * F.G.H.J.' - t.K.5 ' r.u 2 f 6 * F.G.H.J.' - t.K.5 ' r.",
"L.. D o O + @ # $ % & * = - + ;   : D o O + @ # $ % & * = - + > ",
", < 1 : 2 3 4 5 6 7 8 9 0 q w 6 e r 1 : 2 3 4 5 6 7 8 9 0 q w # ",
"- t y u i p t 0 a 8 s 6 d 2 f g h t y u i p t 0 a 8 s 6 d 2 f g ",
"j k = l z x c v b : n m M m N B V k = l z x c v b : n m M m N C ",
": Z A S @ & D F G H 0 J K N L 6 : m A S @ & D F G H 0 J K N P X ",
"I D U p Y = T R E o y i W 7 Q ! I D U p Y = T R E o y i W 7 Q ~ ",
"h ^ B 2 / X y 6 ( T z D ) f $ t ( ^ B 2 / X y 6 ( T z D ) f _ ` ",
": X 6 U ' ] 3 B [ { } |  ...X.o.: X 6 U ' ] 3 B [ { } |  ...X.b ",
"& Y o ; # O.7 ' +.@.I #.I $.%.# _ &.o ; # O.7 ' +.@.I #.I $.*.=.",
"d -.;.:.>.l ,.<.1.2.3.4.y 2 5.( m -.;.:.>.l ,.<.1.2.3.4.y 2 : 6.",
"d ] . 7.8.9.0.q.@._ 4.w.! 2 e.=.r.4.. 7.8.9.0.q.@._ 4.w.! 2 e.t.",
"9 o j y.u.i.p.r.a.U s.d.B *.> f.m o j y.u.i.p.r.a.U s.d.B *.> f.",
"g.a.h.> m j.z t.k.l.z.} x.c.v.b a a.h.> m j.z t.k.l.z.} x.c.v.o.",
"m u y b.z n.m.M.t.h.N.B.V.C.Z.= d u y b.z n.m.M.t.h.N.B.V.C.Z.= ",
"> y k v o > & / 3 m h.V Q ; i U 4.D.k v o > & / 3 m h.V Q ; i t ",
"> ;.# ! 5.P.d I.J.I - t.U.D = r.u 2 # ! 5.P.d I.J.I - t.U.D t.+ "
};
