/* XPM */
static char * wall_xpm[] = {
"32 32 354 2",
"   c None",
". 	c #6A705A",
"+ 	c #585B4B",
"@ 	c #535845",
"# 	c #4F5343",
"$ 	c #737B64",
"% 	c #686E59",
"& 	c #626855",
"* 	c #818674",
"= 	c #959989",
"- 	c #777D68",
"; 	c #5C614F",
"> 	c #4F5344",
", 	c #6F7461",
"' 	c #7E826E",
") 	c #8B917D",
"! 	c #A2A698",
"~ 	c #B6B9AF",
"{ 	c #BABDB5",
"] 	c #969B89",
"^ 	c #7D836D",
"/ 	c #5B604E",
"( 	c #4E5141",
"_ 	c #676D58",
": 	c #979B8A",
"< 	c #B4B7AD",
"[ 	c #BABCB4",
"} 	c #ADB0A5",
"| 	c #949987",
"1 	c #888E7A",
"2 	c #4F5444",
"3 	c #4E5243",
"4 	c #535A4A",
"5 	c #747A65",
"6 	c #9A9F8E",
"7 	c #9FA394",
"8 	c #999D8D",
"9 	c #878C7A",
"0 	c #7C816D",
"a 	c #767C66",
"b 	c #7C826C",
"c 	c #656B57",
"d 	c #515646",
"e 	c #555A4A",
"f 	c #565A47",
"g 	c #4F5646",
"h 	c #4D5343",
"i 	c #6F765F",
"j 	c #5A5F4D",
"k 	c #505545",
"l 	c #717762",
"m 	c #8B907D",
"n 	c #929785",
"o 	c #777D67",
"p 	c #6A6F5C",
"q 	c #525747",
"r 	c #585D4C",
"s 	c #606552",
"t 	c #7E856E",
"u 	c #7A816A",
"v 	c #646956",
"w 	c #3E4235",
"x 	c #8A917C",
"y 	c #A4A89A",
"z 	c #9CA091",
"A 	c #8C917E",
"B 	c #767B68",
"C 	c #676E59",
"D 	c #828873",
"E 	c #929786",
"F 	c #A3A799",
"G 	c #949A88",
"H 	c #656B58",
"I 	c #757C66",
"J 	c #838974",
"K 	c #676D59",
"L 	c #616653",
"M 	c #4A5040",
"N 	c #A7AD9E",
"O 	c #C2C4BD",
"P 	c #BEC1B9",
"Q 	c #AEB1A6",
"R 	c #9DA191",
"S 	c #7D836E",
"T 	c #737963",
"U 	c #9CA191",
"V 	c #969B8A",
"W 	c #969A89",
"X 	c #7A806A",
"Y 	c #575B4B",
"Z 	c #8A907C",
"` 	c #5A5F4E",
" .	c #4C5141",
"..	c #757A66",
"+.	c #A1A597",
"@.	c #B9BBB3",
"#.	c #B0B4A8",
"$.	c #939887",
"%.	c #686E5A",
"&.	c #6C725E",
"*.	c #ACB0A4",
"=.	c #AEB2A6",
"-.	c #ABAEA2",
";.	c #A5A99C",
">.	c #868C78",
",.	c #5B604F",
"'.	c #898E7A",
").	c #646955",
"!.	c #686D59",
"~.	c #4E5344",
"{.	c #3E4335",
"].	c #565B49",
"^.	c #909583",
"/.	c #767C68",
"(.	c #727862",
"_.	c #7A806B",
":.	c #7F8472",
"<.	c #B6B9B0",
"[.	c #B6B8AF",
"}.	c #B8BAB1",
"|.	c #818771",
"1.	c #5F6552",
"2.	c #636955",
"3.	c #6C725D",
"4.	c #565B4B",
"5.	c #3C4034",
"6.	c #3B3F34",
"7.	c #5A614D",
"8.	c #6B715D",
"9.	c #7B816B",
"0.	c #6A705B",
"a.	c #696F5B",
"b.	c #737964",
"c.	c #828775",
"d.	c #9EA293",
"e.	c #B4B6AC",
"f.	c #A6AA9D",
"g.	c #979C8B",
"h.	c #787E69",
"i.	c #606553",
"j.	c #696F5A",
"k.	c #626854",
"l.	c #646A57",
"m.	c #505445",
"n.	c #535848",
"o.	c #515546",
"p.	c #31342A",
"q.	c #727963",
"r.	c #9DA192",
"s.	c #7C836C",
"t.	c #989D8D",
"u.	c #858B75",
"v.	c #636855",
"w.	c #666C58",
"x.	c #545848",
"y.	c #565B4A",
"z.	c #5D6250",
"A.	c #606653",
"B.	c #575C4B",
"C.	c #4B4F40",
"D.	c #9EA291",
"E.	c #B1B4A9",
"F.	c #868C77",
"G.	c #949988",
"H.	c #B0B3A8",
"I.	c #A4A89B",
"J.	c #808670",
"K.	c #757B64",
"L.	c #7F856E",
"M.	c #5E6351",
"N.	c #565A4A",
"O.	c #525646",
"P.	c #595E4D",
"Q.	c #6D735F",
"R.	c #5D6150",
"S.	c #535747",
"T.	c #525946",
"U.	c #797F67",
"V.	c #BBBDB5",
"W.	c #A0A596",
"X.	c #898E7B",
"Y.	c #A9ACA0",
"Z.	c #B3B6AC",
"`.	c #8E9281",
" +	c #636956",
".+	c #595E4C",
"++	c #525647",
"@+	c #4E5343",
"#+	c #505546",
"$+	c #6D735E",
"%+	c #6E745F",
"&+	c #6B715C",
"*+	c #32352C",
"=+	c #888D79",
"-+	c #8D9380",
";+	c #B5B8AE",
">+	c #727764",
",+	c #949989",
"'+	c #878C7D",
")+	c #5E6251",
"!+	c #5A5E4D",
"~+	c #676D5A",
"{+	c #6E745E",
"]+	c #5B614F",
"^+	c #424637",
"/+	c #838875",
"(+	c #A6AA9C",
"_+	c #9DA292",
":+	c #7E846F",
"<+	c #ACAFA3",
"[+	c #9A9E8E",
"}+	c #686D5A",
"|+	c #A1A698",
"1+	c #C3C5BE",
"2+	c #BBBEB5",
"3+	c #8E9380",
"4+	c #999E8E",
"5+	c #7B826B",
"6+	c #646A56",
"7+	c #6A6F5B",
"8+	c #4C5241",
"9+	c #818973",
"0+	c #838973",
"a+	c #818772",
"b+	c #7F8570",
"c+	c #8D927F",
"d+	c #B8BBB2",
"e+	c #BDC0B8",
"f+	c #B7B9B0",
"g+	c #858B77",
"h+	c #5C624F",
"i+	c #757B67",
"j+	c #6F755F",
"k+	c #585C4C",
"l+	c #555A49",
"m+	c #8A8F7A",
"n+	c #898E7C",
"o+	c #A0A496",
"p+	c #828874",
"q+	c #B0B3A9",
"r+	c #A3A699",
"s+	c #B2B4AA",
"t+	c #B9BBB2",
"u+	c #AFB2A7",
"v+	c #8F9482",
"w+	c #595D4D",
"x+	c #515444",
"y+	c #656B56",
"z+	c #878D79",
"A+	c #909684",
"B+	c #757B65",
"C+	c #727863",
"D+	c #7E846E",
"E+	c #7D846D",
"F+	c #2A2C24",
"G+	c #46473A",
"H+	c #787E6A",
"I+	c #959A89",
"J+	c #585D4B",
"K+	c #6F7560",
"L+	c #7B816A",
"M+	c #858B76",
"N+	c #656A58",
"O+	c #626754",
"P+	c #777C68",
"Q+	c #656A56",
"R+	c #6A705C",
"S+	c #535748",
"T+	c #505747",
"U+	c #505645",
"V+	c #79816D",
"W+	c #7F8572",
"X+	c #AAAEA1",
"Y+	c #737864",
"Z+	c #5B5F4E",
"`+	c #848A75",
" @	c #5C6250",
".@	c #797F69",
"+@	c #545948",
"@@	c #3A4034",
"#@	c #696F59",
"$@	c #5F6352",
"%@	c #7A7F6C",
"&@	c #747B64",
"*@	c #707760",
"=@	c #2F3128",
"-@	c #434638",
";@	c #B9BCB3",
">@	c #9A9F8F",
",@	c #717761",
"'@	c #5C604F",
")@	c #555949",
"!@	c #798069",
"~@	c #5D6350",
"{@	c #616754",
"]@	c #5D624F",
"^@	c #525746",
"/@	c #616552",
"(@	c #9EA393",
"_@	c #9EA394",
":@	c #878D78",
"<@	c #6C735D",
"[@	c #5E6451",
"}@	c #787F67",
"|@	c #4D5342",
"1@	c #535548",
"2@	c #525748",
"3@	c #626956",
"4@	c #8B917F",
"5@	c #B7BAB1",
"6@	c #BABDB4",
"7@	c #545849",
"8@	c #525745",
"9@	c #4D5444",
"0@	c #44483B",
"a@	c #35392E",
"b@	c #747B63",
"c@	c #878C76",
"d@	c #707660",
"e@	c #5F6452",
"f@	c #616753",
"g@	c #595F4E",
"h@	c #414639",
"i@	c #3A3D33",
"j@	c #787E66",
"k@	c #656B59",
"l@	c #6F7462",
"m@	c #737A63",
"n@	c #535947",
"o@	c #55594A",
"p@	c #575949",
"q@	c #7A816F",
"r@	c #9B9F90",
"s@	c #9EA294",
"t@	c #888E79",
"u@	c #4C5043",
"v@	c #515846",
"w@	c #4F5245",
"x@	c #5D6256",
"y@	c #808374",
"z@	c #878D77",
"A@	c #4E5241",
"B@	c #454A3D",
"C@	c #4F5143",
"D@	c #393C30",
"E@	c #4C5343",
"F@	c #737965",
"G@	c #7C816C",
"H@	c #575B4A",
"I@	c #4F5242",
"J@	c #2D2E26",
"K@	c #494F40",
"L@	c #494F41",
"M@	c #33352B",
"                            . + @ #                             ",
"                        $ % & * = - ; >                         ",
"                      , ' ) ! ~ { ] ^ / (                       ",
"                      _ : < ~ [ } | 1 % 2 3                     ",
"                    4 5 6 7 8 9 0 a b c d e f g h               ",
"                i j k l m n o 0 p q r e s t u v r w             ",
"            x y z A B C D A E F G H 2 q I 1 J K L M             ",
"            N O P Q R S T n U V W X Y j b Z l L `  .            ",
"          ..+.@.#.F $.%.&.*.=.-.;.>.,.; '.5 ).!.r ~.{.          ",
"          ].5 ^./.(._./ :.<.[.}.y |.1.r - 2.c 3.4.~. .5.6.      ",
"        7.8.9.b 0.a.b.; c.d.e.f.g.h.i.r j.k.%.l.m.n.o.n.2 p.    ",
"      q.r.+.1 s.t.V u.v.J J 8 '.9.w.j x.y.1.; k z.A.B.j.x.C.    ",
"      D.E.F F.G.H.I.J.A.q.K.L.u ; M.N.2 > x.O.P.Q.,.R.s S.T.    ",
"    U.F V.W.X.Y.Z.`. +j .+L 3.% S.r ++@+> #+z.$+%+; L $+&+y.*+  ",
"    t f.[ =+-+;+F >+l ,+'+)+!+~+z.. z.~.2 m.n./ w.P.1.{+w.]+^+  ",
"    /+(+_+:++.<+[+}+|+1+2+z 3+*.+.4+5+s 4.$+3.6+B.o.A.7+M.j 8+  ",
"    9+0+a+b+F c+=+J d+e+E.d.W.f+~ <+g+h+i+F.) t j+n.O.M.k+B.l+  ",
"    m+q._ n+o+a+j.p+q+;+r+V s+t+d+u+v+B.'.1 c+a+%+m.O.o.S.w+B.  ",
"    p x+l.z _+v.y+J.z+A+_.p+*.[ } 3+B+S.C+D+E+3.B.++r B.S.B.B.F+",
"      G+H+I+v+J+K+L+M+N+O+&+t.F y P+L !+Q+w.R+; l+S+& c d T+U+  ",
"        V+W+C+A.J _+X+Y+Z+v.`+n J  @.+z.w..@j.y.+@S+i.v 3 @@    ",
"        #@$@; p+f.t+*.K+/ %@D &@&@& M.,.R+u *@N.A.B.y. @3 =@    ",
"          -@j r.;@<+>@,@z.W.W D+(.B.'@)@0.!@w.~@{@]@d B.^@      ",
"            /@(@_@] :@{+p #.! E A <@!.O.[@}@& [@` B.|@1@2@      ",
"            3@| ) J.^ 3.4@5@6@y 3+D+l o.7@R+c j 8@9@0@a@        ",
"            b@c@9.$+d@e@_@[.< +.>.^ 3.k 2 i.f@g@h@i@            ",
"              j@k@{@A.l@f.Z.<+$.E+m@a.@+2 j n@-@                ",
"                o@p@e q@r@s@V t@!.{+%.> u@v@w@                  ",
"                  m.  x@y@z@M+.@B.c % A@B@C@D@                  ",
"                        E@F@G@j.k H@I@J@                        ",
"                            ` Y K@L@M@                          ",
"                                                                "};
