/* XPM */
static const char *wall[] = {
/* columns rows colors chars-per-pixel */
"32 32 125 2 ",
"   c #2C2D25",
".  c #2F3228",
"X  c #32352B",
"o  c #35392E",
"O  c #3A3D32",
"+  c #3D4135",
"@  c #424637",
"#  c #434639",
"$  c #45493C",
"%  c #4A4F40",
"&  c #4E5343",
"*  c #515646",
"=  c #535946",
"-  c #535748",
";  c #565A4A",
":  c #595E4D",
">  c #5C614F",
",  c #5E6351",
"<  c #616653",
"1  c #646956",
"2  c #666C58",
"3  c #696E5A",
"4  c #6C725D",
"5  c #6F7561",
"6  c #717762",
"7  c #747A64",
"8  c #787F67",
"9  c #777C68",
"0  c #797F6A",
"q  c #7C826C",
"w  c #7F8571",
"e  c #818672",
"r  c #848A75",
"t  c #878C79",
"y  c #898E7A",
"u  c #8B917E",
"i  c #8E9381",
"p  c #919785",
"a  c #939887",
"s  c #949987",
"d  c #939987",
"f  c #949988",
"g  c #949989",
"h  c #959989",
"j  c #949A88",
"k  c #959A89",
"l  c #969A89",
"z  c #969B89",
"x  c #969B8A",
"c  c #979B8A",
"v  c #979C8B",
"b  c #969B89",
"n  c #989D8D",
"m  c #999D8D",
"M  c #999E8E",
"N  c #9A9E8E",
"B  c #9A9F8E",
"V  c #9A9F8F",
"C  c #9B9F90",
"Z  c #9CA091",
"A  c #9CA191",
"S  c #9DA191",
"D  c #9EA291",
"F  c #9DA192",
"G  c #9DA292",
"H  c #9EA293",
"J  c #9FA394",
"K  c #9EA293",
"L  c #A0A496",
"P  c #A0A596",
"I  c #A1A597",
"U  c #A1A597",
"Y  c #A1A698",
"T  c #A2A698",
"R  c #A3A699",
"E  c #A3A799",
"W  c #A2A698",
"Q  c #A4A89A",
"!  c #A4A89B",
"~  c #A5A99C",
"^  c #A6AA9C",
"/  c #A6AA9D",
"(  c #A7AD9E",
")  c #A5A99C",
"_  c #A9ACA0",
"`  c #ABAEA2",
"'  c #ACAFA3",
"]  c #ABAFA2",
"[  c #ACB0A4",
"{  c #ADB0A5",
"}  c #AEB1A6",
"|  c #AEB2A6",
" . c #AFB2A7",
".. c #ACB0A4",
"X. c #B0B3A8",
"o. c #B0B3A9",
"O. c #B0B4A8",
"+. c #B1B4A9",
"@. c #B2B4AA",
"#. c #B3B6AC",
"$. c #B4B6AC",
"%. c #B4B7AD",
"&. c #B2B6AB",
"*. c #B5B8AE",
"=. c #B6B8AF",
"-. c #B6B9AF",
";. c #B6B8AF",
":. c #B6B9B0",
">. c #B7B9B0",
",. c #B7BAB1",
"<. c #B8BAB1",
"1. c #B8BBB2",
"2. c #B9BBB2",
"3. c #B9BBB3",
"4. c #BABCB4",
"5. c #BABDB5",
"6. c #BBBDB5",
"7. c #BBBEB5",
"8. c #B9BCB3",
"9. c #BDC0B8",
"0. c #BEC1B9",
"q. c #C2C4BD",
"w. c #C3C5BE",
"e. c None",
"r. c black",
/* pixels */
"e.e.e.e.e.e.e.e.e.e.e.e.e.e.4 ; = & e.e.e.e.e.e.e.e.e.e.e.e.e.e.",
"e.e.e.e.e.e.e.e.e.e.e.e.7 3 1 e c 9 > & e.e.e.e.e.e.e.e.e.e.e.e.",
"e.e.e.e.e.e.e.e.e.e.e.5 q u T -.4.c q > & e.e.e.e.e.e.e.e.e.e.e.",
"e.e.e.e.e.e.e.e.e.e.e.2 c %.-.4.} s y 3 & & e.e.e.e.e.e.e.e.e.e.",
"e.e.e.e.e.e.e.e.e.e.; 7 B J B t q 9 q 1 * ; ; & & e.e.e.e.e.e.e.",
"e.e.e.e.e.e.e.e.4 : * 6 u p 9 q 3 * : ; < q q 1 : + e.e.e.e.e.e.",
"e.e.e.e.e.e.u Q A u 9 2 e u p T c 2 & * 9 y r 2 < & e.e.e.e.e.e.",
"e.e.e.e.e.e.( q.0.} A q 7 p A c c q ; : q u 6 < : & e.e.e.e.e.e.",
"e.e.e.e.e.7 I <.O.T a 3 4 } } ` / t > > y 7 1 3 : & + e.e.e.e.e.",
"e.e.e.e.e.; 7 p 9 7 q > w :.-.<.Q e , : 9 1 1 4 ; & & + O e.e.e.",
"e.e.e.e.> 4 q q 4 3 7 > e A %./ v 0 < : 3 1 3 1 * ; * ; & X e.e.",
"e.e.e.7 A I y q B c r 1 r r B y q 2 : ; ; , > * , < ; 3 ; % e.e.",
"e.e.e.A O.T t c X.Q e < 7 7 q q > , ; & & ; * : 4 > , < * = e.e.",
"e.e.8 T 4.I y ` #.i 1 : : < 4 3 * : * & & * , 4 4 > < 4 4 ; X e.",
"e.e.q / 4.y i -.T 6 6 c t , : 2 , 4 , & & * ; > 2 : , 4 2 > @ e.",
"e.e.r / A q I ' B 3 T q.4.A i } I B q < ; 4 4 1 ; * < 3 , : & e.",
"e.e.e e e w T u y r <.0.O.A I :.-.' r > 7 t u q 4 ; * , : ; ; e.",
"e.e.y 7 2 y I e 3 r X.-.T c O.<.<.} i ; y y u e 4 * * * * : ; e.",
"e.e.3 * 1 A A 1 1 e t p q r } 4.} i 7 * 7 q q 4 ; * : ; * ; ;   ",
"e.e.e.# 0 c i : 5 q r 2 < 4 B T Q 9 < : 1 2 4 > ; - 1 1 * * * e.",
"e.e.e.e.q w 7 < r A ` 7 : 1 r p r , : , 2 0 3 ; ; - < 1 & + e.e.",
"e.e.e.e.3 , > r / <.} 5 > 0 e 7 7 1 , > 4 q 6 ; < ; ; , & . e.e.",
"e.e.e.e.e.# : A 8.' B 6 , I c q 7 ; > ; 4 q 2 , < > * ; * e.e.e.",
"e.e.e.e.e.e.< A J c t 4 3 O.T p u 4 3 * , 8 1 , : ; & - - e.e.e.",
"e.e.e.e.e.e.1 s u e q 4 u :.4.Q i q 6 * ; 4 1 : * & $ o e.e.e.e.",
"e.e.e.e.e.e.7 t q 4 6 , J -.%.I t q 4 * & < < : # O . e.e.e.e.e.",
"e.e.e.e.e.e.e.8 2 < < 5 / #.' a q 7 3 & & : = # e.e.e.e.e.e.e.e.",
"e.e.e.e.e.e.e.e.; ; ; q C J c y 3 4 3 & & = & e.e.e.e.e.e.e.e.e.",
"e.e.e.e.e.e.e.e.e.* e., e t r 0 ; 1 3 & $ & O e.e.e.e.e.e.e.e.e.",
"e.e.e.e.e.e.e.e.e.e.e.e.& 7 q 3 * ; &   e.e.e.e.e.e.e.e.e.e.e.e.",
"e.e.e.e.e.e.e.e.e.e.e.e.e.e.: ; % % X e.e.e.e.e.e.e.e.e.e.e.e.e.",
"e.e.e.e.e.e.e.e.e.e.e.e.e.e.e.e.e.e.e.e.e.e.e.e.e.e.e.e.e.e.e.e."
};
